<svg width="128" height="128" viewBox="0 0 128 128" xmlns="http://www.w3.org/2000/svg">
  <defs>
    <clipPath id="shield-clip">
      <path d="M64 22 L98 33 V61 C98 84 83 100 64 109 C45 100 30 84 30 61 V33 Z"/>
    </clipPath>
    <pattern id="tone" width="7" height="7" patternUnits="userSpaceOnUse">
      <circle cx="2" cy="2" r="1.5" fill="rgba(0,0,0,0.16)"/>
    </pattern>
  </defs>
  <!-- manga panel tile -->
  <rect x="3" y="3" width="122" height="122" rx="24" fill="#f6efe2" stroke="#141210" stroke-width="5"/>
  <!-- angry shield -->
  <path d="M64 22 L98 33 V61 C98 84 83 100 64 109 C45 100 30 84 30 61 V33 Z" fill="#e6301e" stroke="#141210" stroke-width="5" stroke-linejoin="round"/>
  <rect x="20" y="16" width="88" height="100" fill="url(#tone)" clip-path="url(#shield-clip)"/>
  <!-- furious brows -->
  <line x1="42" y1="41" x2="57" y2="48" stroke="#141210" stroke-width="6.5" stroke-linecap="round"/>
  <line x1="86" y1="41" x2="71" y2="48" stroke="#141210" stroke-width="6.5" stroke-linecap="round"/>
  <!-- intense eyes -->
  <circle cx="50" cy="59" r="6" fill="#fffdf7" stroke="#141210" stroke-width="3"/>
  <circle cx="78" cy="59" r="6" fill="#fffdf7" stroke="#141210" stroke-width="3"/>
  <circle cx="52.4" cy="60.6" r="2.6" fill="#141210"/>
  <circle cx="75.6" cy="60.6" r="2.6" fill="#141210"/>
  <!-- screaming mouth -->
  <ellipse cx="64" cy="85" rx="10.5" ry="12" fill="#141210"/>
  <rect x="56.5" y="74.5" width="15" height="5.5" rx="2.5" fill="#fffdf7"/>
</svg>
